<?xml version="1.0" standalone="no"?>
<!DOCTYPE svg PUBLIC "-//W3C//DTD SVG 20010904//EN"
 "http://www.w3.org/TR/2001/REC-SVG-20010904/DTD/svg10.dtd">
<svg version="1.0" xmlns="http://www.w3.org/2000/svg"
 width="789.000000pt" height="789.000000pt" viewBox="0 0 789.000000 789.000000"
 preserveAspectRatio="xMidYMid meet">
<metadata>
Created by potrace 1.11, written by Peter Selinger 2001-2013
</metadata>
<g transform="translate(0.000000,789.000000) scale(0.100000,-0.100000)"
fill="#000000" stroke="none">
<path d="M3719 7886 c-2 -2 -51 -7 -109 -11 -58 -4 -107 -8 -110 -10 -3 -1
-34 -6 -70 -9 -35 -4 -110 -16 -165 -26 -55 -11 -111 -21 -125 -24 -129 -22
-515 -137 -625 -186 -11 -5 -54 -23 -95 -40 -92 -39 -360 -169 -380 -185 -8
-7 -42 -27 -75 -45 -64 -34 -347 -221 -365 -240 -3 -3 -39 -32 -80 -64 -145
-112 -395 -349 -520 -492 -157 -180 -320 -407 -452 -632 -51 -86 -196 -386
-239 -492 -97 -241 -187 -553 -224 -772 -3 -18 -10 -58 -15 -88 -6 -30 -12
-77 -15 -105 -3 -27 -7 -59 -10 -70 -26 -120 -27 -734 -1 -885 2 -14 8 -52 11
-85 11 -86 12 -96 19 -135 9 -51 15 -86 32 -165 9 -38 18 -81 20 -95 22 -108
122 -422 188 -585 51 -125 206 -436 261 -520 25 -38 48 -77 52 -85 6 -15 119
-183 140 -210 7 -8 33 -44 60 -80 26 -36 50 -67 53 -70 3 -3 25 -30 50 -60 82
-100 104 -124 255 -275 83 -83 200 -191 260 -240 61 -50 112 -93 113 -97 2 -5
9 -8 17 -8 7 0 18 -7 25 -15 27 -33 280 -199 435 -286 133 -74 415 -209 438
-209 7 0 17 -4 22 -9 11 -9 162 -64 290 -105 178 -57 469 -121 645 -141 25 -3
56 -8 70 -10 68 -13 228 -20 445 -19 279 0 394 8 590 40 50 8 105 17 124 20
18 3 43 8 55 10 11 3 32 7 46 10 14 3 32 7 40 9 8 2 29 7 45 9 17 3 84 22 150
41 66 20 127 37 135 40 170 45 516 196 725 315 162 92 383 233 405 259 3 4 32
26 65 50 55 41 115 89 205 166 57 49 331 326 379 384 25 29 50 59 56 65 54 57
315 425 315 444 0 4 5 13 12 20 29 29 182 322 251 482 89 206 192 516 223 673
2 10 5 26 8 35 3 9 8 33 11 52 3 19 8 42 10 50 2 8 7 31 10 50 3 19 8 42 10
50 2 8 7 38 10 65 3 28 8 64 10 80 35 206 41 741 11 955 -2 14 -7 52 -10 85
-4 33 -11 83 -16 110 -5 28 -12 64 -15 80 -2 17 -14 73 -25 125 -12 52 -23
106 -26 120 -17 85 -103 351 -161 500 -63 161 -197 431 -290 585 -74 122 -180
284 -193 295 -3 3 -19 23 -35 45 -37 50 -139 177 -185 230 -100 114 -362 364
-490 466 -141 113 -407 299 -428 299 -6 0 -12 4 -14 8 -4 11 -203 120 -318
175 -239 113 -523 217 -715 262 -5 1 -17 4 -25 7 -8 3 -40 11 -70 17 -30 6
-66 14 -80 16 -74 16 -129 26 -160 31 -19 3 -60 9 -90 14 -30 5 -86 12 -125
16 -38 3 -83 8 -100 11 -34 5 -551 14 -556 9z"/>
</g>
</svg>
